HIERARCHY
ROOT Hips
{
    OFFSET 0.000000 0.000000 0.000000
    CHANNELS 6 Xposition Yposition Zposition Zrotation Xrotation Yrotation
    JOINT Spine
    {
        OFFSET -0.000000 6.925600 0.000000
        CHANNELS 3 Zrotation Xrotation Yrotation
        JOINT Spine1
        {
            OFFSET -0.000000 16.343796 0.000000
            CHANNELS 3 Zrotation Xrotation Yrotation
            JOINT Neck
            {
                OFFSET -0.000000 18.032967 0.000000
                CHANNELS 3 Zrotation Xrotation Yrotation
                JOINT Head
                {
                    OFFSET -0.000000 13.091072 1.689171
                    CHANNELS 3 Zrotation Xrotation Yrotation
                    End Site
                    {
                        OFFSET -0.000000 16.891708 0.000000
                    }
                }
            }
            JOINT LeftShoulder
            {
                OFFSET 3.336773 14.146137 -0.012206
                CHANNELS 3 Zrotation Xrotation Yrotation
                JOINT LeftArm
                {
                    OFFSET 11.765518 0.000000 0.000000
                    CHANNELS 3 Zrotation Xrotation Yrotation
                    JOINT LeftForeArm
                    {
                        OFFSET 25.163450 0.000000 0.000000
                        CHANNELS 3 Zrotation Xrotation Yrotation
                        JOINT LeftHand
                        {
                            OFFSET 21.783554 0.000000 0.000000
                            CHANNELS 3 Zrotation Xrotation Yrotation
                            End Site
                            {
                                OFFSET 12.668781 0.000000 0.000000
                            }
                        }
                    }
                }
            }
            JOINT RightShoulder
            {
                OFFSET -3.409204 14.146137 -0.012206
                CHANNELS 3 Zrotation Xrotation Yrotation
                JOINT RightArm
                {
                    OFFSET -11.765518 0.000000 0.000000
                    CHANNELS 3 Zrotation Xrotation Yrotation
                    JOINT RightForeArm
                    {
                        OFFSET -25.163450 0.000000 0.000000
                        CHANNELS 3 Zrotation Xrotation Yrotation
                        JOINT RightHand
                        {
                            OFFSET -21.783554 0.000000 0.000000
                            CHANNELS 3 Zrotation Xrotation Yrotation
                            End Site
                            {
                                OFFSET -12.668781 0.000000 0.000000
                            }
                        }
                    }
                }
            }
        }
    }
    JOINT LeftUpLeg
    {
        OFFSET 8.445854 0.000000 0.000000
        CHANNELS 3 Zrotation Xrotation Yrotation
        JOINT LeftLeg
        {
            OFFSET -0.000000 -40.674755 0.000000
            CHANNELS 3 Zrotation Xrotation Yrotation
            JOINT LeftFoot
            {
                OFFSET -0.000000 -37.111794 0.000000
                CHANNELS 3 Zrotation Xrotation Yrotation
                JOINT LeftToeBase
                {
                    OFFSET -0.000000 -5.489805 12.668781
                    CHANNELS 3 Zrotation Xrotation Yrotation
                    End Site
                    {
                        OFFSET -0.000000 0.000000 3.378341
                    }
                }
            }
        }
    }
    JOINT RightUpLeg
    {
        OFFSET -8.445854 0.000000 0.000000
        CHANNELS 3 Zrotation Xrotation Yrotation
        JOINT RightLeg
        {
            OFFSET -0.000000 -40.674755 0.000000
            CHANNELS 3 Zrotation Xrotation Yrotation
            JOINT RightFoot
            {
                OFFSET -0.000000 -37.111794 0.000000
                CHANNELS 3 Zrotation Xrotation Yrotation
                JOINT RightToeBase
                {
                    OFFSET -0.000000 -5.489805 12.668781
                    CHANNELS 3 Zrotation Xrotation Yrotation
                    End Site
                    {
                        OFFSET -0.000000 0.000000 3.378341
                    }
                }
            }
        }
    }
}
MOTION
Frames:    8
Frame Time:    0.008333
2.507847    83.140678    12.859763    -3.186813    -2.203692    0.228207    -0.056844    -8.407668    -6.230302    7.818221    8.229382    -2.662389    4.018410    11.433846    30.858980    -30.481081    -2.174953    35.603912    -3.616151    9.007649    12.524876    -49.070236    36.898045    -26.493597    14.276026    -15.854406    -106.150909    -2.550461    3.271150    -2.597542    -5.922426    8.511368    -5.866681    47.013340    44.927021    36.885971    -4.672480    -18.339405    103.662849    4.684783    -12.571868    0.828365    19.582365    -10.530164    5.000886    1.647341    17.324865    10.808940    -14.043997    -0.766320    16.697689    -4.183783    -2.758599    6.546815    8.983059    3.819911    3.554178    -3.280026    -1.261100    -11.516827    -4.788935    -2.226203    -0.790070    1.930340    -2.708554    -1.173512    
2.506052    83.140495    12.851545    -3.191100    -2.207173    0.240476    -0.019578    -8.532785    -6.313765    7.796220    8.527849    -2.711092    4.322549    10.627966    30.902687    -30.700058    -1.218960    35.966633    -3.756304    8.764283    12.617098    -49.002686    36.869831    -26.443331    14.372046    -15.926882    -106.114563    -2.540246    3.315717    -2.594192    -5.982006    8.353586    -5.727437    46.988735    45.013233    36.909492    -4.566186    -18.304504    103.673302    4.767538    -12.664586    0.884490    19.584465    -10.532269    4.984253    1.643971    17.315508    10.800593    -14.027753    -0.781722    16.711695    -4.169680    -2.746613    6.527706    8.986703    3.816991    3.555517    -3.273860    -1.260169    -11.516853    -4.801175    -2.235720    -0.795891    1.934878    -2.712339    -1.181823    
2.505344    83.140091    12.843823    -3.191120    -2.211855    0.254869    -0.012262    -8.514139    -6.304231    7.784886    8.518388    -2.706563    4.316515    10.597549    30.906549    -30.712723    -1.232748    35.965645    -3.759013    8.746536    12.608321    -48.992207    36.825832    -26.504993    14.467651    -15.975216    -106.044151    -2.575588    3.374471    -2.622690    -5.990088    8.351515    -5.718737    46.938286    45.114330    36.810684    -3.346661    -18.508041    104.168381    7.205916    -14.272890    1.840190    19.581411    -10.536736    4.962440    1.644584    17.308519    10.837076    -14.042681    -0.753392    16.683735    -4.175173    -2.753895    6.529083    8.987654    3.815753    3.546341    -3.272947    -1.263653    -11.521849    -4.796276    -2.229140    -0.799441    1.929742    -2.703162    -1.182554    
2.502806    83.139626    12.837828    -3.188145    -2.218324    0.266606    0.084018    -8.392467    -6.184898    7.671481    8.335755    -2.648538    4.337238    10.579397    30.866962    -30.684153    -1.196503    35.937023    -3.727901    8.770767    12.486754    -48.948002    36.766277    -26.542551    14.492226    -15.984111    -106.035545    -2.621601    3.397238    -2.622891    -5.961397    8.393870    -5.919549    46.844414    45.303020    36.903389    -3.181462    -18.491875    104.242424    7.332761    -14.451781    1.894674    19.576706    -10.532342    4.950000    1.640968    17.296711    10.812807    -14.027392    -0.784232    16.718925    -4.042262    -2.421299    6.853754    8.985722    3.818841    3.560496    -3.269552    -1.264939    -11.546526    -4.815443    -2.222064    -0.800533    1.923895    -2.702932    -1.162221    
2.500813    83.139008    12.829882    -3.193467    -2.216799    0.276071    0.103728    -8.390430    -6.164575    7.651666    8.335731    -2.640817    4.341630    10.560118    30.854685    -30.720377    -1.220235    35.922512    -3.726819    8.750071    12.469172    -48.939697    36.707512    -26.598545    14.550744    -15.997378    -105.976288    -2.683826    3.445561    -2.669046    -5.960424    8.400224    -5.915753    46.727589    45.376389    37.073288    -4.312432    -18.220613    103.835876    4.567723    -12.883427    0.807109    19.582474    -10.547482    4.949740    1.647433    17.299814    10.822962    -14.031587    -0.730910    16.688412    -4.096957    -2.490433    6.876385    8.992358    3.810146    3.561882    -3.270216    -1.261264    -11.555762    -4.797825    -2.218775    -0.800046    1.937659    -2.719230    -1.177457    
2.498399    83.138870    12.823124    -3.194014    -2.222264    0.287732    0.128769    -8.376904    -6.150024    7.611322    8.298162    -2.630955    4.381968    10.616900    30.806520    -30.825218    -1.297703    35.875645    -3.714627    8.773205    12.444701    -48.925854    36.637188    -26.683559    14.626256    -16.019316    -105.871582    -2.709253    3.496457    -2.941948    -5.961365    8.444199    -5.872477    46.692184    45.458233    36.983814    -4.282816    -18.221508    103.931702    4.406622    -12.912467    0.825846    19.581747    -10.548158    4.937272    1.642416    17.295780    10.797833    -14.020687    -0.762226    16.722996    -4.167262    -2.737406    6.541007    8.995403    3.810525    3.560378    -3.269277    -1.261434    -11.554279    -4.797952    -2.224937    -0.815705    1.926871    -2.710224    -1.157712    
2.495582    83.138107    12.815949    -3.199296    -2.221801    0.299834    0.130194    -8.390600    -6.136972    7.540760    8.259762    -2.618024    4.119821    11.307699    30.816586    -30.702209    -2.301770    35.567314    -3.592186    8.853437    12.408285    -48.965553    36.599842    -26.817501    14.653847    -16.023846    -105.787041    -2.708858    3.495658    -2.793000    -5.852178    8.506434    -5.769637    46.587482    45.425625    37.056816    -4.277862    -18.203922    103.897461    4.137872    -12.908140    0.755720    19.587372    -10.557109    4.910991    1.638135    17.290848    10.845869    -14.018373    -0.744518    16.689707    -4.163478    -2.734302    6.535621    9.001256    3.803111    3.556666    -3.266568    -1.260554    -11.556825    -4.824770    -2.212375    -0.810900    1.935711    -2.718753    -1.171511    
2.492790    83.136887    12.809269    -3.200087    -2.224035    0.311558    0.145038    -8.386426    -6.119197    7.518773    8.255610    -2.610538    4.107739    11.306537    30.810257    -30.706438    -2.338045    35.548843    -3.590444    8.844811    12.393930    -48.922440    36.574924    -26.879017    14.689278    -16.028048    -105.743347    -2.626341    3.523942    -2.867715    -5.851738    8.506918    -5.756312    46.530228    45.504734    37.093239    -4.320593    -18.209122    103.886223    3.859449    -12.863012    0.753274    19.584618    -10.565849    4.907526    1.647093    17.291973    10.857452    -14.025605    -0.744494    16.668968    -4.060283    -2.446831    6.854925    9.000686    3.801224    3.560852    -3.256205    -1.262739    -11.561282    -4.827869    -2.207570    -0.826792    1.934789    -2.715644    -1.174667    
